<svg viewBox="0 0 211 42" xmlns="http://www.w3.org/2000/svg" data-logo="logo">
        <g transform="translate(0, 1) rotate(0)" id="logogram" style="opacity: 1;"><path fill="#464D72" d="M15 0L20.4545 5.33333L0 25.3333V14.6667L15 0Z"></path><path fill="#5742F0" d="M2.90827 28.177L15 40L30 25.3334V14.6667L20.4545 5.33337L0 25.3334L0.0041688 25.3375L20.4545 5.33337V20.6667L11.25 29.6667V20.1324L2.90827 28.177Z"></path></g>
        <g transform="translate(36, 7)" id="logotype" style="opacity: 1;"><path d="M14.55 28L8.58 28L8.58 1.17L14.55 1.17L14.55 28ZM26.56 17.47L13.14 17.47L13.14 12.34L26.56 12.34L26.56 17.47ZM27.17 6.30L13.14 6.30L13.14 1.17L27.17 1.17L27.17 6.30ZM35.53 28L29.71 28L29.71 0.41L35.53 0.41L35.53 28ZM47.08 28.42L47.08 28.42Q44.53 28.42 42.57 27.37Q40.62 26.33 39.52 24.48Q38.41 22.64 38.41 20.25L38.41 20.25L38.41 9.53L44.23 9.53L44.23 20.17Q44.23 21.12 44.55 21.81Q44.87 22.49 45.52 22.87Q46.17 23.25 47.08 23.25L47.08 23.25Q48.37 23.25 49.13 22.43Q49.89 21.62 49.89 20.17L49.89 20.17L49.89 9.53L55.70 9.53L55.70 20.21Q55.70 22.64 54.60 24.48Q53.50 26.33 51.56 27.37Q49.62 28.42 47.08 28.42ZM76.76 28L70.03 28L65.58 20.82L64.33 20.02L57.07 9.53L63.87 9.53L68.02 16.26L69.23 17.02L76.76 28ZM63.08 28L56.73 28L64.29 17.25L67.60 20.97L63.08 28ZM76.38 9.53L69.19 19.98L65.89 16.26L70.07 9.53L76.38 9.53ZM86.60 28.42L86.60 28.42Q83.75 28.42 81.45 27.14Q79.15 25.87 77.82 23.67Q76.49 21.46 76.49 18.73L76.49 18.73Q76.49 15.99 77.82 13.83Q79.15 11.66 81.43 10.39Q83.71 9.11 86.60 9.11L86.60 9.11Q89.49 9.11 91.77 10.37Q94.05 11.62 95.38 13.81Q96.71 15.99 96.71 18.73L96.71 18.73Q96.71 21.46 95.38 23.67Q94.05 25.87 91.77 27.14Q89.49 28.42 86.60 28.42ZM86.60 23.14L86.60 23.14Q87.85 23.14 88.80 22.59Q89.75 22.03 90.27 21.03Q90.78 20.02 90.78 18.73L90.78 18.73Q90.78 17.44 90.25 16.47Q89.71 15.50 88.78 14.95Q87.85 14.40 86.60 14.40L86.60 14.40Q85.38 14.40 84.43 14.95Q83.48 15.50 82.95 16.49Q82.42 17.47 82.42 18.77L82.42 18.77Q82.42 20.02 82.95 21.03Q83.48 22.03 84.43 22.59Q85.38 23.14 86.60 23.14ZM104.65 28L98.83 28L98.83 9.53L104.65 9.53L104.65 28ZM104.65 17.85L104.65 17.85L102.22 15.95Q102.94 12.72 104.65 10.94Q106.36 9.15 109.40 9.15L109.40 9.15Q110.73 9.15 111.73 9.55Q112.74 9.95 113.50 10.79L113.50 10.79L110.04 15.16Q109.66 14.74 109.09 14.51Q108.52 14.28 107.80 14.28L107.80 14.28Q106.36 14.28 105.50 15.18Q104.65 16.07 104.65 17.85ZM121.48 28.38L121.48 28.38Q118.94 28.38 116.94 27.13Q114.95 25.87 113.79 23.71Q112.63 21.54 112.63 18.77L112.63 18.77Q112.63 15.99 113.79 13.83Q114.95 11.66 116.94 10.41Q118.94 9.15 121.48 9.15L121.48 9.15Q123.34 9.15 124.84 9.87Q126.35 10.60 127.30 11.87Q128.25 13.14 128.36 14.78L128.36 14.78L128.36 22.76Q128.25 24.39 127.31 25.66Q126.38 26.94 124.86 27.66Q123.34 28.38 121.48 28.38ZM122.66 23.14L122.66 23.14Q124.52 23.14 125.66 21.90Q126.80 20.67 126.80 18.77L126.80 18.77Q126.80 17.47 126.29 16.49Q125.78 15.50 124.84 14.95Q123.91 14.40 122.70 14.40L122.70 14.40Q121.48 14.40 120.55 14.95Q119.62 15.50 119.07 16.49Q118.52 17.47 118.52 18.77L118.52 18.77Q118.52 20.02 119.05 21.01Q119.58 22.00 120.53 22.57Q121.48 23.14 122.66 23.14ZM132.27 28L126.57 28L126.57 23.02L127.45 18.54L126.57 14.05L126.57 9.53L132.27 9.53L132.27 28ZM139.27 28.42L139.27 28.42Q137.78 28.42 136.80 27.39Q135.81 26.37 135.81 24.92L135.81 24.92Q135.81 23.40 136.80 22.39Q137.78 21.39 139.27 21.39L139.27 21.39Q140.79 21.39 141.75 22.39Q142.72 23.40 142.72 24.92L142.72 24.92Q142.72 26.37 141.75 27.39Q140.79 28.42 139.27 28.42ZM153.52 28.38L153.52 28.38Q150.97 28.38 148.98 27.13Q146.98 25.87 145.82 23.71Q144.66 21.54 144.66 18.77L144.66 18.77Q144.66 15.99 145.82 13.83Q146.98 11.66 148.98 10.41Q150.97 9.15 153.52 9.15L153.52 9.15Q155.38 9.15 156.88 9.87Q158.38 10.60 159.33 11.87Q160.28 13.14 160.39 14.78L160.39 14.78L160.39 22.76Q160.28 24.39 159.35 25.66Q158.42 26.94 156.90 27.66Q155.38 28.38 153.52 28.38ZM154.69 23.14L154.69 23.14Q156.56 23.14 157.70 21.90Q158.84 20.67 158.84 18.77L158.84 18.77Q158.84 17.47 158.32 16.49Q157.81 15.50 156.88 14.95Q155.95 14.40 154.73 14.40L154.73 14.40Q153.52 14.40 152.59 14.95Q151.65 15.50 151.10 16.49Q150.55 17.47 150.55 18.77L150.55 18.77Q150.55 20.02 151.08 21.01Q151.62 22.00 152.57 22.57Q153.52 23.14 154.69 23.14ZM164.31 28L158.61 28L158.61 23.02L159.48 18.54L158.61 14.05L158.61 9.53L164.31 9.53L164.31 28ZM173.47 28L167.65 28L167.65 9.53L173.47 9.53L173.47 28ZM170.58 6.99L170.58 6.99Q169.21 6.99 168.32 6.05Q167.42 5.12 167.42 3.79L167.42 3.79Q167.42 2.43 168.32 1.51Q169.21 0.60 170.58 0.60L170.58 0.60Q171.95 0.60 172.82 1.51Q173.69 2.43 173.69 3.79L173.69 3.79Q173.69 5.12 172.82 6.05Q171.95 6.99 170.58 6.99Z" fill="#4854f9"></path></g>
        
      </svg>